<mxfile host="app.diagrams.net" agent="Mozilla/5.0 (Macintosh; Intel Mac OS X 10_15_7) AppleWebKit/537.36 (KHTML, like Gecko) Chrome/133.0.0.0 Safari/537.36" version="26.0.11">
  <diagram name="Page-1" id="zTQvggG1dvJsKaY3H_-2">
    <mxGraphModel dx="1434" dy="761" grid="1" gridSize="10" guides="1" tooltips="1" connect="1" arrows="1" fold="1" page="1" pageScale="1" pageWidth="850" pageHeight="1100" math="0" shadow="0">
      <root>
        <mxCell id="0" />
        <mxCell id="1" parent="0" />
        <mxCell id="7V6pBb3bkbljTt1vhKeR-1" value="" style="rounded=0;whiteSpace=wrap;html=1;labelBackgroundColor=#CCCCCC;" vertex="1" parent="1">
          <mxGeometry x="40" y="110" width="760" height="620" as="geometry" />
        </mxCell>
        <mxCell id="7V6pBb3bkbljTt1vhKeR-2" value="VPC" style="sketch=0;outlineConnect=0;html=1;whiteSpace=wrap;fontSize=12;fontStyle=0;shape=mxgraph.aws4.group;grIcon=mxgraph.aws4.group_vpc;verticalAlign=top;align=left;spacingLeft=30;dashed=0;labelBackgroundColor=none;fillColor=#f5f5f5;fontColor=#333333;strokeColor=#666666;" vertex="1" parent="1">
          <mxGeometry x="70" y="160" width="700" height="520" as="geometry" />
        </mxCell>
        <mxCell id="7V6pBb3bkbljTt1vhKeR-5" value="Subnet" style="sketch=0;outlineConnect=0;html=1;whiteSpace=wrap;fontSize=12;fontStyle=0;shape=mxgraph.aws4.group;grIcon=mxgraph.aws4.group_subnet;verticalAlign=top;align=left;spacingLeft=30;dashed=0;fillColor=#eeeeee;strokeColor=#36393d;" vertex="1" parent="1">
          <mxGeometry x="110" y="220" width="620" height="410" as="geometry" />
        </mxCell>
        <mxCell id="7V6pBb3bkbljTt1vhKeR-6" value="Amazon EC2" style="sketch=0;outlineConnect=0;fontColor=#232F3E;gradientColor=none;strokeColor=#ffffff;fillColor=#232F3E;dashed=0;verticalLabelPosition=middle;verticalAlign=bottom;align=center;html=1;whiteSpace=wrap;fontSize=10;fontStyle=1;spacing=3;shape=mxgraph.aws4.productIcon;prIcon=mxgraph.aws4.ec2;" vertex="1" parent="1">
          <mxGeometry x="380" y="470" width="80" height="100" as="geometry" />
        </mxCell>
        <mxCell id="7V6pBb3bkbljTt1vhKeR-7" value="Amazon EC2" style="sketch=0;outlineConnect=0;fontColor=#232F3E;gradientColor=none;strokeColor=#ffffff;fillColor=#232F3E;dashed=0;verticalLabelPosition=middle;verticalAlign=bottom;align=center;html=1;whiteSpace=wrap;fontSize=10;fontStyle=1;spacing=3;shape=mxgraph.aws4.productIcon;prIcon=mxgraph.aws4.ec2;" vertex="1" parent="1">
          <mxGeometry x="590" y="310" width="80" height="100" as="geometry" />
        </mxCell>
        <mxCell id="7V6pBb3bkbljTt1vhKeR-8" value="Amazon EC2" style="sketch=0;outlineConnect=0;fontColor=#232F3E;gradientColor=none;strokeColor=#ffffff;fillColor=#232F3E;dashed=0;verticalLabelPosition=middle;verticalAlign=bottom;align=center;html=1;whiteSpace=wrap;fontSize=10;fontStyle=1;spacing=3;shape=mxgraph.aws4.productIcon;prIcon=mxgraph.aws4.ec2;" vertex="1" parent="1">
          <mxGeometry x="170" y="310" width="80" height="100" as="geometry" />
        </mxCell>
        <mxCell id="7V6pBb3bkbljTt1vhKeR-10" value="Master" style="text;html=1;align=center;verticalAlign=middle;whiteSpace=wrap;rounded=0;labelBackgroundColor=default;" vertex="1" parent="1">
          <mxGeometry x="180" y="400" width="60" height="30" as="geometry" />
        </mxCell>
        <mxCell id="7V6pBb3bkbljTt1vhKeR-11" value="Replica" style="text;html=1;align=center;verticalAlign=middle;whiteSpace=wrap;rounded=0;labelBackgroundColor=default;" vertex="1" parent="1">
          <mxGeometry x="600" y="400" width="60" height="30" as="geometry" />
        </mxCell>
        <mxCell id="7V6pBb3bkbljTt1vhKeR-12" value="Client" style="text;html=1;align=center;verticalAlign=middle;whiteSpace=wrap;rounded=0;labelBackgroundColor=default;" vertex="1" parent="1">
          <mxGeometry x="390" y="560" width="60" height="30" as="geometry" />
        </mxCell>
        <mxCell id="7V6pBb3bkbljTt1vhKeR-13" value="" style="endArrow=classic;startArrow=classic;html=1;rounded=0;" edge="1" parent="1" source="7V6pBb3bkbljTt1vhKeR-8" target="7V6pBb3bkbljTt1vhKeR-7">
          <mxGeometry width="50" height="50" relative="1" as="geometry">
            <mxPoint x="400" y="420" as="sourcePoint" />
            <mxPoint x="450" y="370" as="targetPoint" />
          </mxGeometry>
        </mxCell>
        <mxCell id="7V6pBb3bkbljTt1vhKeR-15" value="" style="endArrow=classic;startArrow=classic;html=1;rounded=0;entryX=0.013;entryY=-0.03;entryDx=0;entryDy=0;entryPerimeter=0;" edge="1" parent="1" target="7V6pBb3bkbljTt1vhKeR-6">
          <mxGeometry width="50" height="50" relative="1" as="geometry">
            <mxPoint x="250" y="360" as="sourcePoint" />
            <mxPoint x="450" y="370" as="targetPoint" />
          </mxGeometry>
        </mxCell>
        <mxCell id="7V6pBb3bkbljTt1vhKeR-16" value="" style="endArrow=classic;startArrow=classic;html=1;rounded=0;exitX=0.975;exitY=0;exitDx=0;exitDy=0;exitPerimeter=0;" edge="1" parent="1" source="7V6pBb3bkbljTt1vhKeR-6">
          <mxGeometry width="50" height="50" relative="1" as="geometry">
            <mxPoint x="410" y="410" as="sourcePoint" />
            <mxPoint x="590" y="360" as="targetPoint" />
          </mxGeometry>
        </mxCell>
        <mxCell id="7V6pBb3bkbljTt1vhKeR-17" value="" style="image;sketch=0;aspect=fixed;html=1;points=[];align=center;fontSize=12;image=img/lib/mscae/Cache_Redis_Product.svg;textShadow=0;" vertex="1" parent="1">
          <mxGeometry x="45" y="690" width="35.71" height="30" as="geometry" />
        </mxCell>
        <mxCell id="7V6pBb3bkbljTt1vhKeR-19" value="Redis Cluster" style="text;html=1;align=center;verticalAlign=middle;whiteSpace=wrap;rounded=0;" vertex="1" parent="1">
          <mxGeometry x="70" y="690" width="110" height="30" as="geometry" />
        </mxCell>
        <mxCell id="7V6pBb3bkbljTt1vhKeR-21" value="" style="image;aspect=fixed;perimeter=ellipsePerimeter;html=1;align=center;shadow=0;dashed=0;spacingTop=3;image=img/lib/active_directory/internet_cloud.svg;" vertex="1" parent="1">
          <mxGeometry x="45" y="120" width="50" height="31.5" as="geometry" />
        </mxCell>
        <mxCell id="7V6pBb3bkbljTt1vhKeR-22" value="AWS" style="text;html=1;align=center;verticalAlign=middle;whiteSpace=wrap;rounded=0;" vertex="1" parent="1">
          <mxGeometry x="40" y="121.5" width="60" height="30" as="geometry" />
        </mxCell>
        <mxCell id="7V6pBb3bkbljTt1vhKeR-23" value="" style="outlineConnect=0;dashed=0;verticalLabelPosition=bottom;verticalAlign=top;align=center;html=1;shape=mxgraph.aws3.internet_gateway;fillColor=#F58534;gradientColor=none;" vertex="1" parent="1">
          <mxGeometry x="390" y="140" width="50" height="42" as="geometry" />
        </mxCell>
        <mxCell id="7V6pBb3bkbljTt1vhKeR-24" value="IGW" style="text;html=1;align=center;verticalAlign=middle;whiteSpace=wrap;rounded=0;labelBackgroundColor=default;" vertex="1" parent="1">
          <mxGeometry x="385" y="180" width="60" height="30" as="geometry" />
        </mxCell>
        <mxCell id="7V6pBb3bkbljTt1vhKeR-28" value="Security group" style="fillColor=none;strokeColor=#DD3522;verticalAlign=top;fontStyle=0;fontColor=#DD3522;whiteSpace=wrap;html=1;" vertex="1" parent="1">
          <mxGeometry x="140" y="250" width="560" height="350" as="geometry" />
        </mxCell>
        <mxCell id="7V6pBb3bkbljTt1vhKeR-30" value="Async replication" style="text;html=1;align=center;verticalAlign=middle;whiteSpace=wrap;rounded=0;" vertex="1" parent="1">
          <mxGeometry x="365" y="340" width="120" height="30" as="geometry" />
        </mxCell>
        <mxCell id="7V6pBb3bkbljTt1vhKeR-31" value="redis-cli" style="text;html=1;align=center;verticalAlign=middle;whiteSpace=wrap;rounded=0;rotation=40;" vertex="1" parent="1">
          <mxGeometry x="305" y="390" width="60" height="40" as="geometry" />
        </mxCell>
        <mxCell id="7V6pBb3bkbljTt1vhKeR-33" value="redis-cli" style="text;html=1;align=center;verticalAlign=middle;whiteSpace=wrap;rounded=0;rotation=-40;" vertex="1" parent="1">
          <mxGeometry x="485" y="395" width="60" height="30" as="geometry" />
        </mxCell>
      </root>
    </mxGraphModel>
  </diagram>
</mxfile>
